<svg width="100" height="100" viewBox="0 0 100 100" fill="none" xmlns="http://www.w3.org/2000/svg">
  <rect width="100" height="100" rx="16" fill="url(#paint0_linear_10_2)"/>
  <path d="M72.5 51.6667C71.5 51.6667 70.5 51.8333 69.5 52.3333C69.8333 51.6667 70 50.8333 70 50C70 46.3333 67 43.3333 63.3333 43.3333C61.8333 43.3333 60.6667 43.8333 59.5 44.5C57.8333 38.1667 52 33.3333 45 33.3333C36.6667 33.3333 30 40 30 48.3333C30 49 30 49.6667 30.1667 50.1667C29.5 50 29 50 28.3333 50C23.6667 50 20 53.6667 20 58.3333C20 63 23.6667 66.6667 28.3333 66.6667H72.5C76.6667 66.6667 80 63.3333 80 59.1667C80 55 76.6667 51.6667 72.5 51.6667Z" fill="white"/>
  <defs>
    <linearGradient id="paint0_linear_10_2" x1="50" y1="0" x2="50" y2="100" gradientUnits="userSpaceOnUse">
      <stop stop-color="#FF8001"/>
      <stop offset="1" stop-color="#F83700"/>
    </linearGradient>
  </defs>
</svg>
