<svg width="100" height="100" viewBox="0 0 100 100" fill="none" xmlns="http://www.w3.org/2000/svg">
  <rect width="100" height="100" rx="16" fill="white"/>
  <path d="M82.5782 33.4958C81.7947 30.5438 79.4938 28.2239 76.5663 27.4337C71.2655 26 49.9999 26 49.9999 26C49.9999 26 28.7345 26 23.4335 27.4337C20.506 28.2239 18.2054 30.5438 17.4217 33.4958C15.9999 38.841 15.9999 50 15.9999 50C15.9999 50 15.9999 61.159 17.4217 66.5043C18.2054 69.4563 20.506 71.7762 23.4335 72.5662C28.7345 74 49.9999 74 49.9999 74C49.9999 74 71.2655 74 76.5663 72.5662C79.4938 71.7762 81.7947 69.4563 82.5782 66.5043C84.0001 61.159 84.0001 50 84.0001 50C84.0001 50 83.9944 38.841 82.5782 33.4958Z" fill="#FF0000"/>
  <path d="M36.3033 36.1364H43.0202L49.4879 48.3516H49.7649L56.2326 36.1364H62.9496L52.604 54.473V64.5H46.6488V54.473L36.3033 36.1364Z" fill="white"/>
</svg>
